# xmcd CD database file
#
# Track frame offsets:
#	150
#	17744
#	35344
#	56288
#	72785
#	91067
#	111596
#	127433
#	145946
#	163205
#	179142
#	195378
#	220486
#	241279
#
# Disc length: 3566 seconds
#
# Revision: 0
# Processed by: cddbd v1.4b41PL1 Copyright (c) Steve Scherf et al.
# Submitted via: Feurio! 1.61 - http://www.feurio.com
#
DISCID=d30dec0e
DTITLE=Craig David - Born to doit
DYEAR=1900
DGENRE=
TTITLE0=Fill me in
TTITLE1=Can't be messing 'round
TTITLE2=Rendezvous
TTITLE3=7 days
TTITLE4=Follow me
TTITLE5=Last night
TTITLE6=Walking away
TTITLE7=Time to party
TTITLE8=Booty man
TTITLE9=Once in a lifetime
TTITLE10=You now what
TTITLE11=Rewind
TTITLE12=Rendezvous (rmx)
TTITLE13=Rewind (rmx)
EXTD=
EXTT0=
EXTT1=
EXTT2=
EXTT3=
EXTT4=
EXTT5=
EXTT6=
EXTT7=
EXTT8=
EXTT9=
EXTT10=
EXTT11=
EXTT12=
EXTT13=
PLAYORDER=
